<svg xmlns="http://www.w3.org/2000/svg" version="1.1" xmlns:xlink="http://www.w3.org/1999/xlink" xmlns:svgjs="http://svgjs.dev/svgjs" width="2000" height="287" viewBox="0 0 2000 287"><g transform="matrix(1,0,0,1,-1.2121212121212466,0.5569854852328433)"><svg viewBox="0 0 396 57" data-background-color="#333366" preserveAspectRatio="xMidYMid meet" height="287" width="2000" xmlns="http://www.w3.org/2000/svg" xmlns:xlink="http://www.w3.org/1999/xlink"><g id="tight-bounds" transform="matrix(1,0,0,1,0.2400000000000091,-0.11062081065600182)"><svg viewBox="0 0 395.52 57.221241621312" height="57.221241621312" width="395.52"><g><svg viewBox="0 0 556.8488913649164 80.56124838023766" height="57.221241621312" width="395.52"><g transform="matrix(1,0,0,1,161.32889136491644,11.134007554721705)"><svg viewBox="0 0 395.52 58.293233270794246" height="58.293233270794246" width="395.52"><g id="textblocktransform"><svg viewBox="0 0 395.52 58.293233270794246" height="58.293233270794246" width="395.52" id="textblock"><g><svg viewBox="0 0 395.52 58.293233270794246" height="58.293233270794246" width="395.52"><g transform="matrix(1,0,0,1,0,0)"><svg width="395.52" viewBox="3.85 -34.9 239.83 35.35" height="58.293233270794246" data-palette-color="url(#a3601058-d437-4edf-bd3d-61efa9b54264)"><g class="wordmark-text-0" data-fill-palette-color="primary" id="text-0"></g></svg></g></svg></g></svg></g></svg></g><g><svg viewBox="0 0 147.56725802728042 80.56124838023766" height="80.56124838023766" width="147.56725802728042"><g><svg xmlns="http://www.w3.org/2000/svg" xmlns:xlink="http://www.w3.org/1999/xlink" version="1.1" x="0" y="0" viewBox="1.7 45 95.8 52.30000000000001" enable-background="new 0 0 100 100" xml:space="preserve" height="80.56124838023766" width="147.56725802728042" class="icon-icon-0" data-fill-palette-color="accent" id="icon-0"><path d="M95.5 72.4c-2.4 11.1-20.3 23-45 23C33 95.4 18 89.8 11.8 81.3c7.7 7.4 21.7 12.1 37.8 12.1 24.2 0 43.9-11.1 43.9-24.9 0-0.1 0-0.2 0-0.3 0 0 0-0.2 0-0.2h0c-0.1-5-2.5-10-7.8-14l0 0.1c-0.9-0.8-2-1.5-3.2-2.2 0.9-0.2 2-0.1 3 0.3 5.6 2.4 7.3-0.8 7.4-1l-1.8-0.9c0 0.1-1 1.7-4.7 0.1-2.6-1.1-5.5-0.6-7 1.3-0.9 1.1-1.1 2.5-0.8 4.1-1.8-0.9-3.6-1.5-4.9-1.7l-0.4 2c2.2 0.5 5.6 1.8 7.2 3.5 0.6 0.9 0.6 1.7 0.2 2.5-1 2-4.5 4-9.3 5.6 2-1.6 3.2-3.6 3.2-5.6h-2.1c0 4-5.9 7.2-14.1 8.5-1.4 0.2-2.9 0.4-4.4 0.5-1.2 0.1-2.3 0.1-3.5 0.1-11.9 0-22-4.1-22-9.1h-2.1c0 5.3 6.9 9.4 16.8 10.8 1.3 0.2 6 0.4 7.2 0.4 4.7 0 9-0.6 12.6-1.6 9.4-1.7 17.5-4.8 19.4-8.7 0.6-1.2 0.8-2.5 0.3-3.7l0 0c0-0.1-0.1-0.1-0.1-0.2-0.1-0.3-0.3-0.6-0.5-0.9-1.5-1.9-1.9-3.6-1.3-4.8 4.3 2.3 6.9 5 6.9 7.9 0 7.6-17.5 14-38.3 14.1-14.1-0.1-23-2.6-26.5-7.2-1.7-2.2-1.9-4.9-1-8.3l-2-0.6c-1.1 3.9-0.7 7.3 1.4 10.1 0.7 0.9 1.6 1.8 2.7 2.6-2.2-0.7-4.2-1.5-6-2.3-2.4-1.3-3.8-4.2-3.8-5.9 0-4.3 3.6-7.5 11.2-9.9l-0.6-2c-8.6 2.8-12.7 6.5-12.7 11.9 0 0.8 0.2 1.6 0.5 2.5C11 64.7 10 63 10 61.2c0-7.7 17.8-14.1 38.8-14.1 11.1 0 22.3 1.9 29.5 4.7 0 0 0.2-0.4 0.6-0.9 0.3-0.4 0.7-0.8 0.7-0.8C72.1 47.1 60.7 45 48.8 45 25.9 45 8 52.2 8 61.2c0 9.1 17.9 16.2 40.8 16.2 16.3 0 30.2-3.6 36.8-9C81 74.9 67 80.1 51 80.1v2.1c21 0 38-8 38.2-18.2 0.3-0.8 0.5-1.7 0.5-2.5 1.2 2.1 1.8 4.3 1.9 6.9C91.5 78.5 72 87 50 87V89c13 0 25.5-2.6 33.4-7-7.6 5.6-20 9.3-33.8 9.3-18.3 0-33.9-6.1-39.7-15.3 5.8 6 15.9 8.9 25.9 11l0.4-2C15.4 80.7 7 74.5 7 63.6c0-7.9-4.8-8.7-5-8.8l-0.3 2c0.1 0 3.2 0.7 3.2 6.7 0 1.9 0.3 3.6 0.7 5.2 0.1 1.8 0.4 3.5 1.1 5.2 1.5 13.5 20.6 23.4 43.8 23.4 26 0 44.3-12.5 47-24.7L95.5 72.4z" fill="#19191b" data-fill-palette-color="accent"></path></svg></g></svg></g></svg></g><defs></defs><mask id="e99112d7-8d85-4406-8415-3e7c5408597f"><g id="SvgjsG4079"><svg viewBox="0 0 395.52 57.221241621312" height="57.221241621312" width="395.52"><g><svg viewBox="0 0 556.8488913649164 80.56124838023766" height="57.221241621312" width="395.52"><g transform="matrix(1,0,0,1,161.32889136491644,11.134007554721705)"><svg viewBox="0 0 395.52 58.293233270794246" height="58.293233270794246" width="395.52"><g id="SvgjsG4078"><svg viewBox="0 0 395.52 58.293233270794246" height="58.293233270794246" width="395.52" id="SvgjsSvg4077"><g><svg viewBox="0 0 395.52 58.293233270794246" height="58.293233270794246" width="395.52"><g transform="matrix(1,0,0,1,0,0)"><svg width="395.52" viewBox="3.85 -34.9 239.83 35.35" height="58.293233270794246" data-palette-color="url(#a3601058-d437-4edf-bd3d-61efa9b54264)"><g class="wordmark-text-0" data-fill-palette-color="primary" id="SvgjsG4076"><path d="M22.6-31.15L8.4-31.15 8.4-19.5 21.1-19.5 21.1-15.75 8.4-15.75 8.4-3.75 22.6-3.75 22.6 0 3.85 0 3.85-34.9 22.6-34.9 22.6-31.15ZM31.15-27.4L39.7-4.2 48.2-27.4 53.05-27.4 42.3 0 37 0 26.25-27.4 31.15-27.4ZM82.55-14.75Q82.55-13.45 82.4-12L82.4-12 60.5-12Q60.75-7.95 63.27-5.68 65.8-3.4 69.4-3.4L69.4-3.4Q72.35-3.4 74.32-4.78 76.3-6.15 77.1-8.45L77.1-8.45 82-8.45Q80.9-4.5 77.6-2.02 74.3 0.45 69.4 0.45L69.4 0.45Q65.5 0.45 62.42-1.3 59.35-3.05 57.6-6.28 55.85-9.5 55.85-13.75L55.85-13.75Q55.85-18 57.55-21.2 59.25-24.4 62.32-26.13 65.4-27.85 69.4-27.85L69.4-27.85Q73.3-27.85 76.3-26.15 79.3-24.45 80.92-21.48 82.55-18.5 82.55-14.75L82.55-14.75ZM77.85-15.7Q77.85-18.3 76.7-20.18 75.55-22.05 73.57-23.03 71.6-24 69.2-24L69.2-24Q65.75-24 63.32-21.8 60.9-19.6 60.55-15.7L60.55-15.7 77.85-15.7ZM101.89-27.9Q106.89-27.9 109.99-24.88 113.09-21.85 113.09-16.15L113.09-16.15 113.09 0 108.59 0 108.59-15.5Q108.59-19.6 106.54-21.78 104.49-23.95 100.94-23.95L100.94-23.95Q97.34-23.95 95.22-21.7 93.09-19.45 93.09-15.15L93.09-15.15 93.09 0 88.54 0 88.54-27.4 93.09-27.4 93.09-23.5Q94.44-25.6 96.77-26.75 99.09-27.9 101.89-27.9L101.89-27.9ZM133.24-23.65L126.09-23.65 126.09-7.5Q126.09-5.5 126.94-4.67 127.79-3.85 129.89-3.85L129.89-3.85 133.24-3.85 133.24 0 129.14 0Q125.34 0 123.44-1.75 121.54-3.5 121.54-7.5L121.54-7.5 121.54-23.65 117.99-23.65 117.99-27.4 121.54-27.4 121.54-34.3 126.09-34.3 126.09-27.4 133.24-27.4 133.24-23.65ZM166.14-34.9L166.14 0 161.59 0 143.29-27.75 143.29 0 138.74 0 138.74-34.9 143.29-34.9 161.59-7.2 161.59-34.9 166.14-34.9ZM198.89-14.75Q198.89-13.45 198.74-12L198.74-12 176.84-12Q177.09-7.95 179.61-5.68 182.14-3.4 185.74-3.4L185.74-3.4Q188.69-3.4 190.66-4.78 192.64-6.15 193.44-8.45L193.44-8.45 198.34-8.45Q197.24-4.5 193.94-2.02 190.64 0.45 185.74 0.45L185.74 0.45Q181.84 0.45 178.76-1.3 175.69-3.05 173.94-6.28 172.19-9.5 172.19-13.75L172.19-13.75Q172.19-18 173.89-21.2 175.59-24.4 178.66-26.13 181.74-27.85 185.74-27.85L185.74-27.85Q189.64-27.85 192.64-26.15 195.64-24.45 197.26-21.48 198.89-18.5 198.89-14.75L198.89-14.75ZM194.19-15.7Q194.19-18.3 193.04-20.18 191.89-22.05 189.91-23.03 187.94-24 185.54-24L185.54-24Q182.09-24 179.66-21.8 177.24-19.6 176.89-15.7L176.89-15.7 194.19-15.7ZM214.58 0.45Q211.43 0.45 208.93-0.63 206.43-1.7 204.98-3.63 203.53-5.55 203.38-8.05L203.38-8.05 208.08-8.05Q208.28-6 210.01-4.7 211.73-3.4 214.53-3.4L214.53-3.4Q217.13-3.4 218.63-4.55 220.13-5.7 220.13-7.45L220.13-7.45Q220.13-9.25 218.53-10.13 216.93-11 213.58-11.85L213.58-11.85Q210.53-12.65 208.61-13.48 206.68-14.3 205.31-15.93 203.93-17.55 203.93-20.2L203.93-20.2Q203.93-22.3 205.18-24.05 206.43-25.8 208.73-26.83 211.03-27.85 213.98-27.85L213.98-27.85Q218.53-27.85 221.33-25.55 224.13-23.25 224.33-19.25L224.33-19.25 219.78-19.25Q219.63-21.4 218.06-22.7 216.48-24 213.83-24L213.83-24Q211.38-24 209.93-22.95 208.48-21.9 208.48-20.2L208.48-20.2Q208.48-18.85 209.36-17.98 210.23-17.1 211.56-16.57 212.88-16.05 215.23-15.4L215.23-15.4Q218.18-14.6 220.03-13.83 221.88-13.05 223.21-11.5 224.53-9.95 224.58-7.45L224.58-7.45Q224.58-5.2 223.33-3.4 222.08-1.6 219.81-0.58 217.53 0.45 214.58 0.45L214.58 0.45ZM243.68-23.65L236.53-23.65 236.53-7.5Q236.53-5.5 237.38-4.67 238.23-3.85 240.33-3.85L240.33-3.85 243.68-3.85 243.68 0 239.58 0Q235.78 0 233.88-1.75 231.98-3.5 231.98-7.5L231.98-7.5 231.98-23.65 228.43-23.65 228.43-27.4 231.98-27.4 231.98-34.3 236.53-34.3 236.53-27.4 243.68-27.4 243.68-23.65Z" fill="white"></path></g></svg></g></svg></g></svg></g></svg></g><g><svg viewBox="0 0 147.56725802728042 80.56124838023766" height="80.56124838023766" width="147.56725802728042"><g><svg xmlns="http://www.w3.org/2000/svg" xmlns:xlink="http://www.w3.org/1999/xlink" version="1.1" x="0" y="0" viewBox="1.7 45 95.8 52.30000000000001" enable-background="new 0 0 100 100" xml:space="preserve" height="80.56124838023766" width="147.56725802728042" class="icon-icon-0" data-fill-palette-color="accent" id="SvgjsSvg4075"><path d="M95.5 72.4c-2.4 11.1-20.3 23-45 23C33 95.4 18 89.8 11.8 81.3c7.7 7.4 21.7 12.1 37.8 12.1 24.2 0 43.9-11.1 43.9-24.9 0-0.1 0-0.2 0-0.3 0 0 0-0.2 0-0.2h0c-0.1-5-2.5-10-7.8-14l0 0.1c-0.9-0.8-2-1.5-3.2-2.2 0.9-0.2 2-0.1 3 0.3 5.6 2.4 7.3-0.8 7.4-1l-1.8-0.9c0 0.1-1 1.7-4.7 0.1-2.6-1.1-5.5-0.6-7 1.3-0.9 1.1-1.1 2.5-0.8 4.1-1.8-0.9-3.6-1.5-4.9-1.7l-0.4 2c2.2 0.5 5.6 1.8 7.2 3.5 0.6 0.9 0.6 1.7 0.2 2.5-1 2-4.5 4-9.3 5.6 2-1.6 3.2-3.6 3.2-5.6h-2.1c0 4-5.9 7.2-14.1 8.5-1.4 0.2-2.9 0.4-4.4 0.5-1.2 0.1-2.3 0.1-3.5 0.1-11.9 0-22-4.1-22-9.1h-2.1c0 5.3 6.9 9.4 16.8 10.8 1.3 0.2 6 0.4 7.2 0.4 4.7 0 9-0.6 12.6-1.6 9.4-1.7 17.5-4.8 19.4-8.7 0.6-1.2 0.8-2.5 0.3-3.7l0 0c0-0.1-0.1-0.1-0.1-0.2-0.1-0.3-0.3-0.6-0.5-0.9-1.5-1.9-1.9-3.6-1.3-4.8 4.3 2.3 6.9 5 6.9 7.9 0 7.6-17.5 14-38.3 14.1-14.1-0.1-23-2.6-26.5-7.2-1.7-2.2-1.9-4.9-1-8.3l-2-0.6c-1.1 3.9-0.7 7.3 1.4 10.1 0.7 0.9 1.6 1.8 2.7 2.6-2.2-0.7-4.2-1.5-6-2.3-2.4-1.3-3.8-4.2-3.8-5.9 0-4.3 3.6-7.5 11.2-9.9l-0.6-2c-8.6 2.8-12.7 6.5-12.7 11.9 0 0.8 0.2 1.6 0.5 2.5C11 64.7 10 63 10 61.2c0-7.7 17.8-14.1 38.8-14.1 11.1 0 22.3 1.9 29.5 4.7 0 0 0.2-0.4 0.6-0.9 0.3-0.4 0.7-0.8 0.7-0.8C72.1 47.1 60.7 45 48.8 45 25.9 45 8 52.2 8 61.2c0 9.1 17.9 16.2 40.8 16.2 16.3 0 30.2-3.6 36.8-9C81 74.9 67 80.1 51 80.1v2.1c21 0 38-8 38.2-18.2 0.3-0.8 0.5-1.7 0.5-2.5 1.2 2.1 1.8 4.3 1.9 6.9C91.5 78.5 72 87 50 87V89c13 0 25.5-2.6 33.4-7-7.6 5.6-20 9.3-33.8 9.3-18.3 0-33.9-6.1-39.7-15.3 5.8 6 15.9 8.9 25.9 11l0.4-2C15.4 80.7 7 74.5 7 63.6c0-7.9-4.8-8.7-5-8.8l-0.3 2c0.1 0 3.2 0.7 3.2 6.7 0 1.9 0.3 3.6 0.7 5.2 0.1 1.8 0.4 3.5 1.1 5.2 1.5 13.5 20.6 23.4 43.8 23.4 26 0 44.3-12.5 47-24.7L95.5 72.4z" fill="black"></path></svg></g></svg></g></svg></g><defs><mask></mask></defs></svg><rect width="395.52" height="57.221241621312" fill="black" stroke="none" visibility="hidden"></rect></g></mask><linearGradient x1="0.054" x2="0.941" y1="0.5" y2="0.5" id="a3601058-d437-4edf-bd3d-61efa9b54264"><stop stop-color="#26282a" offset="0"></stop><stop stop-color="#9e9fa0" offset="0.498"></stop><stop stop-color="#26282a" offset="1"></stop></linearGradient><rect width="395.52" height="57.221241621312" fill="url(#a3601058-d437-4edf-bd3d-61efa9b54264)" mask="url(#e99112d7-8d85-4406-8415-3e7c5408597f)" data-fill-palette-color="primary"></rect></svg><rect width="395.52" height="57.221241621312" fill="none" stroke="none" visibility="hidden"></rect></g></svg></g></svg>